<svg xmlns="http://www.w3.org/2000/svg" width="120" height="120" viewBox="0 0 120 120">
  <defs>
    <linearGradient id="logo-gradient" x1="0%" y1="0%" x2="100%" y2="100%">
      <stop offset="0%" stop-color="#3b82f6" />
      <stop offset="100%" stop-color="#0d6efd" />
    </linearGradient>
  </defs>
  <g fill="none" fill-rule="evenodd">
    <path fill="url(#logo-gradient)" d="M60,0 L105,25.98 L105,77.94 L60,103.92 L15,77.94 L15,25.98 L60,0 Z"/>
    <path fill="#FFFFFF" d="M60,15 L90,30 L90,60 L60,75 L30,60 L30,30 L60,15 Z"/>
    <path fill="url(#logo-gradient)" d="M60,30 L75,37.5 L75,52.5 L60,60 L45,52.5 L45,37.5 L60,30 Z"/>
    <path fill="#FFFFFF" d="M60,90 L75,82.5 L75,67.5 L60,60 L45,67.5 L45,82.5 L60,90 Z"/>
    <text x="60" y="120" font-family="Arial, sans-serif" font-size="18" font-weight="bold" text-anchor="middle" fill="url(#logo-gradient)">HiveBuzz</text>
  </g>
</svg>
