<svg xmlns="http://www.w3.org/2000/svg" width="240" height="160" viewBox="0 0 240 160">
  <defs>
    <linearGradient id="empty-comments-gradient" x1="0%" y1="0%" x2="100%" y2="100%">
      <stop offset="0%" stop-color="#f3f4f6" />
      <stop offset="100%" stop-color="#e5e7eb" />
    </linearGradient>
    <linearGradient id="comment-gradient" x1="0%" y1="0%" x2="100%" y2="100%">
      <stop offset="0%" stop-color="#93c5fd" />
      <stop offset="100%" stop-color="#3b82f6" />
    </linearGradient>
  </defs>
  <g fill="none" fill-rule="evenodd">
    <!-- Background -->
    <rect fill="url(#empty-comments-gradient)" x="40" y="20" width="160" height="120" rx="8"/>

    <!-- Comment bubbles -->
    <g transform="translate(70, 45)">
      <path d="M0,0 L60,0 C66.6,0 72,5.4 72,12 L72,36 C72,42.6 66.6,48 60,48 L36,48 L24,60 L12,48 L12,48 C5.4,48 0,42.6 0,36 L0,12 C0,5.4 5.4,0 12,0 Z" fill="url(#comment-gradient)"/>
      <path d="M12,16 L60,16 M12,30 L48,30" stroke="#FFFFFF" stroke-width="4" stroke-linecap="round"/>
    </g>

    <g transform="translate(100, 70)" opacity="0.7">
      <path d="M0,0 L60,0 C66.6,0 72,5.4 72,12 L72,36 C72,42.6 66.6,48 60,48 L36,48 L24,60 L12,48 L12,48 C5.4,48 0,42.6 0,36 L0,12 C0,5.4 5.4,0 12,0 Z" fill="url(#comment-gradient)"/>
      <path d="M12,16 L60,16 M12,30 L48,30" stroke="#FFFFFF" stroke-width="4" stroke-linecap="round"/>
    </g>

    <!-- Plus Sign -->
    <circle fill="url(#comment-gradient)" cx="120" cy="130" r="10"/>
    <path d="M120,125 L120,135 M115,130 L125,130" stroke="#FFFFFF" stroke-width="2"/>
  </g>
</svg>
